<svg width="588.8" height="139.702" viewBox="0 0 588.8 139.702" xmlns="http://www.w3.org/2000/svg"><g id="svgGroup" stroke-linecap="round" fill-rule="evenodd" font-size="9pt" stroke="#ff0000" stroke-width="0.25mm" fill="#ff0505" style="stroke:#ff0000;stroke-width:0.25mm;fill:#ff0505"><path d="M 324.7 37.002 L 318.6 65.602 Q 317.835 69.43 317.655 72.437 A 29.663 29.663 0 0 0 317.6 74.202 A 14.478 14.478 0 0 0 317.772 76.51 Q 318.179 79.025 319.55 80.502 A 6.381 6.381 0 0 0 322.964 82.396 A 9.57 9.57 0 0 0 325 82.602 A 10.378 10.378 0 0 0 329.567 81.514 A 13.792 13.792 0 0 0 331.45 80.402 Q 334.296 78.414 338.08 74.061 A 84.227 84.227 0 0 0 338.9 73.102 A 4.764 4.764 0 0 1 339.74 72.319 A 3.137 3.137 0 0 1 341.6 71.702 A 2.225 2.225 0 0 1 343.35 72.494 A 3.165 3.165 0 0 1 343.65 72.902 A 4.376 4.376 0 0 1 344.143 74.05 Q 344.4 74.971 344.4 76.202 Q 344.4 80.102 342.5 82.402 A 53.024 53.024 0 0 1 338.614 86.648 Q 335.388 89.789 332.2 91.602 Q 327.1 94.502 321.5 94.502 A 23.026 23.026 0 0 1 315.981 93.877 A 15.644 15.644 0 0 1 308.2 89.452 A 16.98 16.98 0 0 1 303.923 81.137 A 24.864 24.864 0 0 1 303.4 75.902 A 41.494 41.494 0 0 1 303.59 72.164 Q 303.962 68.097 305.06 62.425 A 186.676 186.676 0 0 1 305.8 58.802 L 309.8 40.502 Q 309.965 39.761 310.333 38.071 A 2212.332 2212.332 0 0 0 310.5 37.302 A 69.311 69.311 0 0 0 311.047 34.524 A 57.189 57.189 0 0 0 311.3 32.952 Q 311.6 30.902 311.6 28.902 A 14.478 14.478 0 0 0 311.481 26.978 Q 311.199 24.882 310.25 23.652 A 4.392 4.392 0 0 0 307.153 21.944 A 6.435 6.435 0 0 0 306.4 21.902 A 8.608 8.608 0 0 0 302.526 22.89 Q 299.618 24.348 296.55 27.952 A 31.715 31.715 0 0 0 293.419 32.443 Q 290.527 37.366 287.802 44.954 A 134.051 134.051 0 0 0 286.75 48.002 A 131.241 131.241 0 0 0 283.634 59.149 Q 282.346 64.6 281.238 70.913 A 303.561 303.561 0 0 0 279.2 84.402 Q 278.678 88.874 277.573 91.152 A 6.09 6.09 0 0 1 276.75 92.452 Q 275.328 94.117 272.487 94.429 A 12.707 12.707 0 0 1 271.1 94.502 A 11.468 11.468 0 0 1 269.334 94.375 Q 267.264 94.052 266.15 92.902 Q 264.832 91.541 264.635 88.155 A 21.597 21.597 0 0 1 264.6 86.902 Q 264.6 82.989 265.602 76.753 A 132.113 132.113 0 0 1 265.7 76.152 Q 266.8 69.502 268.5 60.502 A 751.678 751.678 0 0 0 270.064 52.031 Q 273.1 34.989 273.1 29.302 A 15.886 15.886 0 0 0 272.986 27.322 Q 272.692 24.995 271.65 23.702 A 4.645 4.645 0 0 0 269.05 22.096 Q 268.253 21.902 267.3 21.902 A 9.94 9.94 0 0 0 262.955 22.964 Q 261.408 23.711 259.832 24.983 A 26.073 26.073 0 0 0 257.2 27.452 A 27.166 27.166 0 0 0 254.135 31.505 Q 251.375 35.867 248.688 42.721 A 127.614 127.614 0 0 0 247.05 47.152 Q 242.32 60.675 239.096 83.285 A 386.167 386.167 0 0 0 238.8 85.402 Q 238.256 89.364 237.32 91.455 A 6.944 6.944 0 0 1 236.75 92.502 Q 235.423 94.468 231.629 94.501 A 14.959 14.959 0 0 1 231.5 94.502 A 13.105 13.105 0 0 1 229.634 94.378 Q 227.363 94.05 226.2 92.852 A 4.359 4.359 0 0 1 225.327 91.461 Q 224.764 90.098 224.637 87.933 A 22.782 22.782 0 0 1 224.6 86.602 Q 224.6 83.502 225.25 78.652 Q 225.748 74.938 226.744 69.085 A 628.03 628.03 0 0 1 227.4 65.302 A 1084.352 1084.352 0 0 0 229.196 54.117 Q 229.879 49.703 230.455 45.699 A 581.485 581.485 0 0 0 231.5 38.102 A 145.996 145.996 0 0 0 232.031 33.237 Q 232.239 30.953 232.33 28.981 A 62.731 62.731 0 0 0 232.4 26.102 A 9.041 9.041 0 0 0 232.269 24.487 Q 231.762 21.706 229.289 21.605 A 4.635 4.635 0 0 0 229.1 21.602 A 6.556 6.556 0 0 0 227.142 21.929 Q 225.41 22.473 223.319 23.919 A 25.283 25.283 0 0 0 222.85 24.252 A 25.425 25.425 0 0 0 220.252 26.446 Q 217.693 28.891 214.812 32.687 A 79.572 79.572 0 0 0 214.8 32.702 A 6.407 6.407 0 0 1 213.989 33.62 Q 213.472 34.095 212.919 34.341 A 2.978 2.978 0 0 1 211.7 34.602 Q 210.3 34.602 209.25 33.252 Q 208.2 31.902 208.2 30.202 A 8.498 8.498 0 0 1 208.581 27.722 A 10.159 10.159 0 0 1 208.85 26.952 A 12.625 12.625 0 0 1 209.457 25.651 Q 210.063 24.514 211 23.202 A 43.374 43.374 0 0 1 216.065 17.274 A 33.296 33.296 0 0 1 221.7 12.852 A 25.981 25.981 0 0 1 227.139 10.262 A 20.002 20.002 0 0 1 233.5 9.202 Q 239 9.202 241.95 12.702 A 11.291 11.291 0 0 1 244.015 16.521 Q 244.554 18.172 244.765 20.18 A 26.099 26.099 0 0 1 244.9 22.902 A 35.904 35.904 0 0 1 244.818 25.252 Q 244.735 26.512 244.569 27.93 A 68.571 68.571 0 0 1 244.4 29.252 A 280.088 280.088 0 0 1 244.156 30.992 Q 243.85 33.127 243.586 34.701 A 89.794 89.794 0 0 1 243.5 35.202 A 201.394 201.394 0 0 1 243.315 36.249 Q 243.079 37.568 242.933 38.25 A 18.691 18.691 0 0 1 242.9 38.402 Q 247.954 23.949 254.109 17.24 A 24.73 24.73 0 0 1 255.7 15.652 A 26.426 26.426 0 0 1 262.06 11.299 A 21.179 21.179 0 0 1 271.3 9.202 A 14.746 14.746 0 0 1 275.959 9.903 A 11.948 11.948 0 0 1 281.55 13.802 Q 284.613 17.559 285.174 23.852 A 33.239 33.239 0 0 1 285.3 26.802 Q 285.3 29.177 284.834 32.381 A 71.646 71.646 0 0 1 284.4 35.002 A 81.638 81.638 0 0 1 287.605 27.316 Q 291.312 19.641 295.787 15.487 A 23.658 23.658 0 0 1 296.1 15.202 Q 302.8 9.202 311.5 9.202 A 17.387 17.387 0 0 1 315.929 9.733 A 11.973 11.973 0 0 1 322.25 13.702 Q 326 18.202 326 26.302 A 37.734 37.734 0 0 1 325.817 29.869 Q 325.513 33.064 324.7 37.002 Z M 452.4 37.002 L 446.3 65.602 Q 445.535 69.43 445.355 72.437 A 29.663 29.663 0 0 0 445.3 74.202 A 14.478 14.478 0 0 0 445.472 76.51 Q 445.879 79.025 447.25 80.502 A 6.381 6.381 0 0 0 450.664 82.396 A 9.57 9.57 0 0 0 452.7 82.602 A 10.378 10.378 0 0 0 457.267 81.514 A 13.792 13.792 0 0 0 459.15 80.402 Q 461.996 78.414 465.78 74.061 A 84.227 84.227 0 0 0 466.6 73.102 A 4.764 4.764 0 0 1 467.44 72.319 A 3.137 3.137 0 0 1 469.3 71.702 A 2.225 2.225 0 0 1 471.05 72.494 A 3.165 3.165 0 0 1 471.35 72.902 A 4.376 4.376 0 0 1 471.843 74.05 Q 472.1 74.971 472.1 76.202 Q 472.1 80.102 470.2 82.402 A 53.024 53.024 0 0 1 466.314 86.648 Q 463.088 89.789 459.9 91.602 Q 454.8 94.502 449.2 94.502 A 23.026 23.026 0 0 1 443.681 93.877 A 15.644 15.644 0 0 1 435.9 89.452 A 16.98 16.98 0 0 1 431.623 81.137 A 24.864 24.864 0 0 1 431.1 75.902 Q 431.1 72.602 431.65 68.702 A 90.595 90.595 0 0 1 432.117 65.772 Q 432.382 64.256 432.728 62.513 A 217.602 217.602 0 0 1 433.5 58.802 L 437.5 40.502 Q 437.665 39.761 438.033 38.071 A 2212.332 2212.332 0 0 0 438.2 37.302 A 69.311 69.311 0 0 0 438.747 34.524 A 57.189 57.189 0 0 0 439 32.952 Q 439.3 30.902 439.3 28.902 A 9.208 9.208 0 0 0 439.058 26.727 A 6.342 6.342 0 0 0 437.5 23.802 Q 435.7 21.902 432.4 21.902 A 12.554 12.554 0 0 0 426.611 23.391 Q 424.695 24.377 422.778 26.017 A 30.014 30.014 0 0 0 420.4 28.302 Q 414.967 34.097 410.272 46.329 A 122.676 122.676 0 0 0 409.3 48.952 A 123.12 123.12 0 0 0 405.785 60.757 Q 404.282 66.815 403.051 73.855 A 270.762 270.762 0 0 0 401.3 85.402 Q 400.756 89.364 399.82 91.455 A 6.944 6.944 0 0 1 399.25 92.502 Q 397.923 94.468 394.129 94.501 A 14.959 14.959 0 0 1 394 94.502 A 13.105 13.105 0 0 1 392.134 94.378 Q 389.863 94.05 388.7 92.852 A 4.359 4.359 0 0 1 387.827 91.461 Q 387.264 90.098 387.137 87.933 A 22.782 22.782 0 0 1 387.1 86.602 Q 387.1 83.502 387.7 79.102 Q 388.298 74.721 389.787 65.88 A 1195.619 1195.619 0 0 1 389.8 65.802 A 452.547 452.547 0 0 0 389.917 65.093 Q 390.2 63.382 391.01 58.433 A 35433.344 35433.344 0 0 0 391.4 56.052 A 383.271 383.271 0 0 0 393.331 42.748 A 437.189 437.189 0 0 0 393.9 38.102 Q 394.9 30.102 394.9 26.102 A 9.041 9.041 0 0 0 394.769 24.487 Q 394.262 21.706 391.789 21.605 A 4.635 4.635 0 0 0 391.6 21.602 A 6.226 6.226 0 0 0 389.825 21.887 Q 387.87 22.471 385.35 24.252 A 24.081 24.081 0 0 0 382.707 26.446 Q 380.122 28.895 377.3 32.702 A 6.407 6.407 0 0 1 376.489 33.62 Q 375.972 34.095 375.419 34.341 A 2.978 2.978 0 0 1 374.2 34.602 Q 372.8 34.602 371.75 33.252 Q 370.7 31.902 370.7 30.202 Q 370.7 28.502 371.3 26.952 A 10.523 10.523 0 0 1 371.816 25.837 Q 372.428 24.681 373.467 23.247 A 34.389 34.389 0 0 1 373.5 23.202 Q 378.4 16.502 384.4 12.852 Q 390.4 9.202 397 9.202 A 14.122 14.122 0 0 1 400.242 9.55 Q 403.381 10.291 405.25 12.602 A 11.036 11.036 0 0 1 407.129 16.168 Q 408 18.844 408 22.502 A 59.973 59.973 0 0 1 407.874 26.175 Q 407.626 30.172 406.894 35.743 A 261.186 261.186 0 0 1 406.4 39.302 Q 410.016 28.599 415.044 21.635 A 38.443 38.443 0 0 1 419.1 16.852 A 26.473 26.473 0 0 1 427.617 11.055 A 24.747 24.747 0 0 1 437.2 9.202 Q 443.198 9.202 447.029 11.689 A 12.458 12.458 0 0 1 449.55 13.852 A 15.79 15.79 0 0 1 453.104 20.843 Q 453.7 23.346 453.7 26.302 A 37.734 37.734 0 0 1 453.517 29.869 Q 453.213 33.064 452.4 37.002 Z M 20.783 94.205 A 57.055 57.055 0 0 0 29.3 94.802 A 64.304 64.304 0 0 0 33.977 94.637 Q 45.742 93.778 53.25 88.452 Q 62.2 82.102 62.2 70.302 A 21.435 21.435 0 0 0 61.929 66.826 A 15.881 15.881 0 0 0 58.95 59.702 Q 55.7 55.402 51.1 52.902 A 78.706 78.706 0 0 0 47.758 51.196 Q 45.926 50.311 43.771 49.362 A 191.837 191.837 0 0 0 38.9 47.302 A 226.021 226.021 0 0 1 37.708 46.825 Q 32.262 44.628 29.1 43.002 A 22.316 22.316 0 0 1 27.726 42.233 A 18.835 18.835 0 0 1 23.25 38.502 A 9.36 9.36 0 0 1 21.554 35.703 A 10.222 10.222 0 0 1 20.9 32.002 A 13.68 13.68 0 0 1 20.92 31.267 Q 21.056 28.732 22.147 26.733 A 10.437 10.437 0 0 1 25.45 23.152 A 15.127 15.127 0 0 1 29.364 21.254 Q 33.177 20.002 38.6 20.002 Q 44.7 20.002 48.8 22.202 A 9.745 9.745 0 0 1 50.423 23.28 A 6.595 6.595 0 0 1 52.9 28.602 A 4.82 4.82 0 0 1 52.9 28.652 Q 52.893 29.33 52.702 31.354 A 184.049 184.049 0 0 1 52.6 32.402 A 16.701 16.701 0 0 0 52.395 33.859 A 21.071 21.071 0 0 0 52.3 35.902 A 4.813 4.813 0 0 0 52.869 38.216 A 5.63 5.63 0 0 0 54.05 39.702 A 5.903 5.903 0 0 0 56.219 40.973 A 6.976 6.976 0 0 0 58.4 41.302 Q 62.1 41.302 64 38.102 Q 65.366 35.802 65.75 31.9 A 33.774 33.774 0 0 0 65.9 28.602 A 20.704 20.704 0 0 0 65.782 26.366 A 15.76 15.76 0 0 0 62.25 17.802 A 19.939 19.939 0 0 0 58.139 14.067 A 24.132 24.132 0 0 0 52.5 11.252 A 36.201 36.201 0 0 0 47.346 9.86 A 43.285 43.285 0 0 0 39.1 9.102 A 61.256 61.256 0 0 0 38.528 9.104 Q 29.088 9.192 22.05 12.202 A 30.319 30.319 0 0 0 17.851 14.383 A 23.195 23.195 0 0 0 10.95 20.902 A 21.583 21.583 0 0 0 8.68 25.133 A 22.888 22.888 0 0 0 7.1 33.702 A 23.7 23.7 0 0 0 7.472 37.99 A 17.225 17.225 0 0 0 10.55 45.252 Q 14 49.902 18.85 52.602 A 66.524 66.524 0 0 0 21.793 54.139 Q 23.828 55.142 26.234 56.184 A 150.11 150.11 0 0 0 31.4 58.302 A 255.857 255.857 0 0 1 32.535 58.759 Q 35.926 60.134 38.374 61.247 A 70.459 70.459 0 0 1 40.7 62.352 A 21.128 21.128 0 0 1 42.376 63.285 A 17.431 17.431 0 0 1 46.2 66.452 Q 48.4 68.902 48.4 72.302 Q 48.4 77.802 43.6 80.852 Q 40.3 82.948 35.251 83.604 A 38.555 38.555 0 0 1 30.3 83.902 A 60.304 60.304 0 0 1 29.965 83.901 Q 24.8 83.872 21.11 82.954 A 18.346 18.346 0 0 1 17.55 81.702 A 10.999 10.999 0 0 1 16.269 80.977 Q 14.823 80.021 14.017 78.742 A 6.866 6.866 0 0 1 13 75.002 A 15.712 15.712 0 0 1 13.006 74.576 A 13.805 13.805 0 0 1 13.15 72.902 A 33.354 33.354 0 0 0 13.16 72.834 Q 13.264 72.132 13.291 71.738 A 3.553 3.553 0 0 0 13.3 71.502 Q 13.469 70.658 13.543 69.656 A 22.557 22.557 0 0 0 13.6 68.002 Q 13.6 65.802 11.9 64.402 A 5.943 5.943 0 0 0 9.421 63.207 A 8.515 8.515 0 0 0 7.5 63.002 Q 3.8 63.002 1.9 65.902 A 9.872 9.872 0 0 0 0.756 68.399 Q 0.365 69.657 0.177 71.191 A 25.558 25.558 0 0 0 0 74.302 Q 0 84.702 8 89.752 A 27.608 27.608 0 0 0 12.643 92.085 Q 16.31 93.528 20.783 94.205 Z M 70.3 79.502 L 70.4 71.502 Q 70.4 56.102 73.55 39.402 A 123.711 123.711 0 0 1 76.605 26.716 Q 78.55 20.247 81.091 14.839 A 68.055 68.055 0 0 1 82.85 11.352 Q 86.185 5.197 90.24 2.38 A 12.656 12.656 0 0 1 97.6 0.002 A 8.587 8.587 0 0 1 104.214 2.919 A 11.617 11.617 0 0 1 105.05 3.952 A 14.357 14.357 0 0 1 107.31 8.954 Q 107.79 10.888 107.879 13.144 A 26.56 26.56 0 0 1 107.9 14.202 A 38.593 38.593 0 0 1 105.928 26.13 A 53.297 53.297 0 0 1 102 35.152 A 84.279 84.279 0 0 1 97.07 43.042 Q 94.299 47.014 90.732 51.379 A 212.556 212.556 0 0 1 82.8 60.502 A 185.598 185.598 0 0 0 82.5 71.03 A 201.525 201.525 0 0 0 82.5 71.202 A 76.502 76.502 0 0 1 85.081 65.27 Q 87.319 60.695 89.85 57.352 A 42.08 42.08 0 0 1 92.623 54.034 Q 94.105 52.446 95.574 51.274 A 18.938 18.938 0 0 1 97.85 49.702 Q 100.788 47.991 103.366 47.553 A 10.337 10.337 0 0 1 105.1 47.402 A 9.357 9.357 0 0 1 107.673 47.724 Q 110.557 48.55 111.323 51.494 A 9.576 9.576 0 0 1 111.6 53.902 A 23.598 23.598 0 0 1 111.471 56.16 Q 111.067 60.272 109.4 68.002 A 209.257 209.257 0 0 0 108.66 71.525 Q 107.708 76.275 107.538 78.601 A 12.459 12.459 0 0 0 107.5 79.502 A 8.127 8.127 0 0 0 107.615 80.937 Q 108.065 83.43 110.271 83.5 A 4.066 4.066 0 0 0 110.4 83.502 A 4.196 4.196 0 0 0 111.864 83.212 Q 113.11 82.747 114.585 81.535 A 18.563 18.563 0 0 0 115.15 81.052 Q 117.9 78.602 122.5 73.102 A 4.764 4.764 0 0 1 123.34 72.319 A 3.137 3.137 0 0 1 125.2 71.702 A 2.225 2.225 0 0 1 126.95 72.494 A 3.165 3.165 0 0 1 127.25 72.902 A 4.376 4.376 0 0 1 127.743 74.05 Q 128 74.971 128 76.202 Q 128 79.099 127.003 81.052 A 6.749 6.749 0 0 1 126.1 82.402 A 59.545 59.545 0 0 1 121.142 87.497 A 46.106 46.106 0 0 1 116.65 91.102 Q 111.8 94.502 105.6 94.502 A 14.03 14.03 0 0 1 102.59 94.199 Q 99.667 93.557 97.9 91.552 A 9.508 9.508 0 0 1 96.013 88.138 Q 95.551 86.708 95.388 84.973 A 21.172 21.172 0 0 1 95.3 83.002 A 18.845 18.845 0 0 1 95.382 81.387 Q 95.614 78.741 96.503 74.033 A 187.798 187.798 0 0 1 96.7 73.002 A 135.129 135.129 0 0 0 97.238 70.263 Q 97.945 66.438 97.996 64.58 A 10.115 10.115 0 0 0 98 64.302 A 3.445 3.445 0 0 0 97.958 63.738 Q 97.791 62.737 96.96 62.703 A 1.452 1.452 0 0 0 96.9 62.702 Q 95.77 62.702 93.807 65.236 A 27.276 27.276 0 0 0 93.2 66.052 Q 90.8 69.402 88.4 74.902 Q 86 80.402 84.5 86.502 Q 82.777 93.755 76.45 94.432 A 12.7 12.7 0 0 1 75.1 94.502 A 6.409 6.409 0 0 1 73.654 94.35 Q 72.758 94.143 72.135 93.649 A 3.348 3.348 0 0 1 71.15 92.352 Q 70.232 90.273 70.201 84.97 A 64.016 64.016 0 0 1 70.2 84.602 Q 70.2 81.402 70.3 79.502 Z M 537.6 81.202 L 537.1 73.902 Q 534.545 80.825 532.432 85.031 A 44.648 44.648 0 0 1 531.55 86.702 A 31.165 31.165 0 0 1 530.096 89.076 Q 528.524 91.384 526.953 92.581 A 8.414 8.414 0 0 1 526.65 92.802 A 9.534 9.534 0 0 1 522.01 94.451 A 12.022 12.022 0 0 1 520.9 94.502 Q 516.838 94.502 514.493 91.36 A 9.49 9.49 0 0 1 514.45 91.302 A 11.492 11.492 0 0 1 513.055 88.699 Q 512.013 86.054 511.588 82.106 A 44.155 44.155 0 0 1 511.5 81.202 A 379.934 379.934 0 0 1 510.769 71.194 Q 510.476 66.238 510.366 61.816 A 206.121 206.121 0 0 1 510.3 56.702 L 510.3 53.202 Q 510.4 49.902 512.1 48.602 A 5.431 5.431 0 0 1 513.688 47.784 Q 514.447 47.53 515.383 47.409 A 14.283 14.283 0 0 1 517.2 47.302 A 9.341 9.341 0 0 1 518.608 47.4 Q 520.166 47.638 521.05 48.452 A 3.358 3.358 0 0 1 521.882 49.698 Q 522.104 50.25 522.208 50.947 A 9.201 9.201 0 0 1 522.3 52.302 A 246.872 246.872 0 0 0 522.437 60.163 Q 522.733 69.403 523.67 81.801 A 774.738 774.738 0 0 0 523.7 82.202 Q 530.5 67.902 536.2 52.402 A 14.885 14.885 0 0 1 536.855 50.868 Q 537.736 49.106 538.85 48.352 A 6.027 6.027 0 0 1 541.273 47.407 A 8.071 8.071 0 0 1 542.6 47.302 A 10.405 10.405 0 0 1 543.883 47.375 Q 545.257 47.546 546.029 48.119 A 2.513 2.513 0 0 1 546.35 48.402 A 3.029 3.029 0 0 1 546.948 49.359 Q 547.4 50.464 547.4 52.302 A 246.872 246.872 0 0 0 547.537 60.163 Q 547.833 69.403 548.77 81.801 A 774.738 774.738 0 0 0 548.8 82.202 Q 553.746 74.866 556.653 69.976 A 107.385 107.385 0 0 0 557.8 68.002 A 12.999 12.999 0 0 1 556.587 64.391 A 17.937 17.937 0 0 1 556.3 61.102 Q 556.3 57.702 557.8 54.502 A 14.381 14.381 0 0 1 560.347 50.706 A 13.143 13.143 0 0 1 561.9 49.302 Q 564.5 47.302 567.8 47.302 A 6.656 6.656 0 0 1 570.108 47.687 A 5.819 5.819 0 0 1 572.5 49.352 Q 574.3 51.402 574.3 55.302 A 20.519 20.519 0 0 1 573.873 59.33 Q 573.489 61.245 572.759 63.348 A 41.389 41.389 0 0 1 571.9 65.602 A 40.387 40.387 0 0 0 574.519 65.369 Q 577.226 65.048 580.805 64.343 A 136.123 136.123 0 0 0 582 64.102 L 584.7 63.602 Q 584.93 63.525 585.393 63.507 A 7.948 7.948 0 0 1 585.7 63.502 A 3.595 3.595 0 0 1 586.649 63.62 A 2.544 2.544 0 0 1 588 64.502 Q 588.706 65.384 588.789 66.812 A 6.722 6.722 0 0 1 588.8 67.202 A 13.047 13.047 0 0 1 588.683 69.007 Q 588.547 69.978 588.253 70.772 A 5.83 5.83 0 0 1 587.6 72.052 A 6.207 6.207 0 0 1 585.446 73.974 A 8.563 8.563 0 0 1 584 74.602 A 30.965 30.965 0 0 1 575.491 76.078 A 35.299 35.299 0 0 1 574.2 76.102 Q 569.8 76.102 565.9 74.902 A 192.82 192.82 0 0 1 561.422 81.813 A 223.807 223.807 0 0 1 559.5 84.602 Q 556.233 89.258 553.732 91.512 A 14.264 14.264 0 0 1 552.65 92.402 Q 549.8 94.502 546.2 94.502 A 8.16 8.16 0 0 1 543.577 94.101 A 6.551 6.551 0 0 1 540.15 91.402 A 10.899 10.899 0 0 1 539.026 89.09 Q 537.945 86.097 537.6 81.202 Z M 220.15 72.494 A 2.225 2.225 0 0 0 218.4 71.702 A 3.137 3.137 0 0 0 216.54 72.319 A 4.764 4.764 0 0 0 215.7 73.102 A 124.901 124.901 0 0 1 214.165 74.897 Q 210.495 79.106 208 81.102 A 12.597 12.597 0 0 1 206.337 82.235 A 9.296 9.296 0 0 1 201.7 83.502 A 8.418 8.418 0 0 1 200.655 83.431 Q 199.578 83.295 198.2 82.902 Q 201.2 78.802 202.9 73.802 Q 204.6 68.802 204.6 63.502 A 29.127 29.127 0 0 0 204.59 62.738 Q 204.413 55.964 201.05 51.702 A 14.041 14.041 0 0 0 200.249 50.771 A 11.002 11.002 0 0 0 191.9 47.202 Q 188.4 47.202 185.3 48.952 Q 183.314 50.073 181.287 52.117 A 32.545 32.545 0 0 0 179 54.702 Q 178.9 53.502 178.9 51.002 Q 178.8 48.502 177.85 47.652 A 2.354 2.354 0 0 0 177.774 47.587 Q 176.818 46.802 174.8 46.802 Q 171.2 46.802 168.8 48.502 A 6.919 6.919 0 0 0 168.587 48.659 Q 166.405 50.334 166.5 53.102 A 186.45 186.45 0 0 1 166.565 55.394 Q 166.66 59.592 166.688 66.755 A 1684.256 1684.256 0 0 1 166.7 73.402 A 222.835 222.835 0 0 0 164.153 77.765 Q 156.667 90.937 152.8 102.152 Q 148.3 115.202 148.3 125.002 A 31.395 31.395 0 0 0 148.444 128.077 Q 148.653 130.204 149.169 131.977 A 13.795 13.795 0 0 0 150.9 135.802 A 8.288 8.288 0 0 0 155.658 139.282 A 11.783 11.783 0 0 0 158.9 139.702 Q 167.8 139.702 172.4 126.752 Q 175.275 118.658 176.861 108.084 A 167.796 167.796 0 0 0 178.3 94.502 A 20.934 20.934 0 0 0 183.63 93.725 A 23.885 23.885 0 0 0 190.2 90.702 Q 193.5 94.502 198.8 94.502 Q 205.1 94.502 210.05 91.102 Q 215 87.702 219.3 82.402 A 6.749 6.749 0 0 0 220.203 81.052 Q 221.2 79.099 221.2 76.202 Q 221.2 74.971 220.943 74.05 A 4.376 4.376 0 0 0 220.45 72.902 A 3.165 3.165 0 0 0 220.15 72.494 Z M 382.65 72.494 A 2.225 2.225 0 0 0 380.9 71.702 A 3.137 3.137 0 0 0 379.04 72.319 A 4.764 4.764 0 0 0 378.2 73.102 Q 374 78.202 368.25 81.352 A 34.393 34.393 0 0 1 365.549 82.688 Q 361.415 84.502 358 84.502 A 19.888 19.888 0 0 1 357.023 84.478 Q 355.152 84.386 353.635 83.933 A 8.254 8.254 0 0 1 348.5 79.902 Q 356.256 77.996 361.052 75.204 A 20.43 20.43 0 0 0 365.25 72.052 Q 370.2 67.102 370.2 60.202 A 16.681 16.681 0 0 0 369.892 56.914 A 11.46 11.46 0 0 0 366.7 50.852 Q 363.2 47.402 357.4 47.402 Q 350.9 47.402 345.75 50.902 Q 340.6 54.402 337.7 60.352 Q 334.8 66.302 334.8 73.202 A 27.897 27.897 0 0 0 335.381 79.046 A 18.867 18.867 0 0 0 340.6 88.802 Q 346.4 94.502 356.9 94.502 Q 364.6 94.502 371.35 90.702 A 53.631 53.631 0 0 0 373.114 89.665 Q 378.599 86.295 381.8 82.402 A 6.749 6.749 0 0 0 382.703 81.052 Q 383.7 79.099 383.7 76.202 Q 383.7 74.971 383.443 74.05 A 4.376 4.376 0 0 0 382.95 72.902 A 3.165 3.165 0 0 0 382.65 72.494 Z M 172.559 64.087 A 2.055 2.055 0 0 0 170.9 63.302 A 4.008 4.008 0 0 0 170.633 63.311 Q 170.128 63.345 169.5 63.502 A 89.607 89.607 0 0 1 166.493 64.235 Q 161.876 65.273 158.3 65.502 A 27.657 27.657 0 0 0 157.954 63.141 A 21.86 21.86 0 0 0 152.85 52.552 A 14.981 14.981 0 0 0 146.438 48.219 A 17.814 17.814 0 0 0 140.6 47.302 Q 134.4 47.302 129.3 50.652 A 21.614 21.614 0 0 0 125.652 53.665 A 24.072 24.072 0 0 0 121.3 59.952 A 27.572 27.572 0 0 0 119.207 65.945 A 34.036 34.036 0 0 0 118.4 73.502 A 28.272 28.272 0 0 0 118.404 73.938 A 24.553 24.553 0 0 0 120.6 83.902 Q 122.8 88.702 127.05 91.602 A 16.069 16.069 0 0 0 132.222 93.906 A 20.705 20.705 0 0 0 137.3 94.502 A 18.053 18.053 0 0 0 143.851 93.307 A 19.822 19.822 0 0 0 150 89.452 A 22.918 22.918 0 0 0 154.906 83.14 A 28.513 28.513 0 0 0 157.5 76.002 A 52.306 52.306 0 0 0 161.91 75.635 A 42.89 42.89 0 0 0 170.7 73.602 A 3.589 3.589 0 0 0 172.952 71.568 Q 173.591 70.19 173.6 67.967 A 15.748 15.748 0 0 0 173.6 67.902 A 10.564 10.564 0 0 0 173.584 67.317 Q 173.544 66.591 173.401 65.968 A 5.429 5.429 0 0 0 172.9 64.602 A 3.16 3.16 0 0 0 172.559 64.087 Z M 516.659 64.087 A 2.055 2.055 0 0 0 515 63.302 A 4.008 4.008 0 0 0 514.733 63.311 Q 514.228 63.345 513.6 63.502 A 89.607 89.607 0 0 1 510.593 64.235 Q 505.976 65.273 502.4 65.502 A 27.657 27.657 0 0 0 502.054 63.141 A 21.86 21.86 0 0 0 496.95 52.552 A 14.981 14.981 0 0 0 490.538 48.219 A 17.814 17.814 0 0 0 484.7 47.302 Q 478.5 47.302 473.4 50.652 A 21.614 21.614 0 0 0 469.752 53.665 A 24.072 24.072 0 0 0 465.4 59.952 A 27.572 27.572 0 0 0 463.307 65.945 A 34.036 34.036 0 0 0 462.5 73.502 A 28.272 28.272 0 0 0 462.504 73.938 A 24.553 24.553 0 0 0 464.7 83.902 Q 466.9 88.702 471.15 91.602 A 16.069 16.069 0 0 0 476.322 93.906 A 20.705 20.705 0 0 0 481.4 94.502 A 18.053 18.053 0 0 0 487.951 93.307 A 19.822 19.822 0 0 0 494.1 89.452 A 22.918 22.918 0 0 0 499.006 83.14 A 28.513 28.513 0 0 0 501.6 76.002 A 52.306 52.306 0 0 0 506.01 75.635 A 42.89 42.89 0 0 0 514.8 73.602 A 3.589 3.589 0 0 0 517.052 71.568 Q 517.691 70.19 517.7 67.967 A 15.748 15.748 0 0 0 517.7 67.902 A 10.564 10.564 0 0 0 517.684 67.317 Q 517.644 66.591 517.501 65.968 A 5.429 5.429 0 0 0 517 64.602 A 3.16 3.16 0 0 0 516.659 64.087 Z M 159.7 129.902 A 1.763 1.763 0 0 0 161.033 129.121 Q 162.864 126.872 164.2 118.152 A 168.174 168.174 0 0 0 165.367 108.53 Q 165.778 104.185 166.061 99.278 A 357.843 357.843 0 0 0 166.5 88.902 A 160.858 160.858 0 0 0 162.029 100.459 A 129.788 129.788 0 0 0 159.7 108.002 Q 157.969 114.302 157.437 119.213 A 38.049 38.049 0 0 0 157.2 123.302 Q 157.2 126.264 157.843 127.941 A 5.701 5.701 0 0 0 157.95 128.202 A 5.794 5.794 0 0 0 158.29 128.864 Q 158.705 129.548 159.186 129.781 A 1.166 1.166 0 0 0 159.7 129.902 Z M 95.5 9.902 A 1.743 1.743 0 0 0 94.456 10.309 Q 93.081 11.35 91.5 15.052 A 52.485 52.485 0 0 0 90.14 18.622 Q 88.707 22.797 87.341 28.566 A 164.874 164.874 0 0 0 87.25 28.952 A 170.538 170.538 0 0 0 85.03 40.191 A 211.625 211.625 0 0 0 83.9 48.002 Q 90.1 40.702 94.15 32.102 A 50.219 50.219 0 0 0 96.618 25.877 Q 98.2 20.877 98.2 16.502 Q 98.2 13.539 97.6 11.862 A 5.938 5.938 0 0 0 97.5 11.602 A 4.29 4.29 0 0 0 97.119 10.868 Q 96.87 10.49 96.568 10.26 A 1.715 1.715 0 0 0 95.5 9.902 Z M 178.8 84.902 A 12.098 12.098 0 0 0 183.288 82.839 A 16.374 16.374 0 0 0 185.45 80.952 A 21.598 21.598 0 0 0 189.053 75.911 A 26.746 26.746 0 0 0 190.3 73.152 Q 192.1 68.502 192.1 63.402 Q 192.1 61.477 191.606 60.149 A 4.884 4.884 0 0 0 190.9 58.852 Q 189.7 57.302 187.7 57.302 Q 184.339 57.302 179.671 63.925 A 51.799 51.799 0 0 0 179 64.902 A 278.326 278.326 0 0 0 178.956 67.358 Q 178.918 70.155 178.906 74.042 A 1212.461 1212.461 0 0 0 178.9 77.802 A 354.497 354.497 0 0 1 178.894 79.97 Q 178.875 83.027 178.8 84.902 Z M 140.7 57.902 L 140.2 57.902 A 7.373 7.373 0 0 0 134.683 60.346 A 11.395 11.395 0 0 0 133.55 61.752 A 13.286 13.286 0 0 0 131.81 65.48 Q 130.9 68.5 130.9 72.602 A 22.559 22.559 0 0 0 131.105 75.748 Q 131.564 78.996 133.05 81.002 A 8.845 8.845 0 0 0 134.467 82.531 A 5.53 5.53 0 0 0 138.1 83.902 A 7.088 7.088 0 0 0 143.126 81.839 A 9.727 9.727 0 0 0 143.65 81.302 A 10.806 10.806 0 0 0 145.436 78.53 Q 146.011 77.273 146.4 75.741 A 22.846 22.846 0 0 0 146.8 73.802 Q 143.7 71.702 142.05 68.302 Q 140.4 64.902 140.4 61.102 Q 140.4 59.502 140.7 57.902 Z M 484.8 57.902 L 484.3 57.902 A 7.373 7.373 0 0 0 478.783 60.346 A 11.395 11.395 0 0 0 477.65 61.752 A 13.286 13.286 0 0 0 475.91 65.48 Q 475 68.5 475 72.602 A 22.559 22.559 0 0 0 475.205 75.748 Q 475.664 78.996 477.15 81.002 A 8.845 8.845 0 0 0 478.567 82.531 A 5.53 5.53 0 0 0 482.2 83.902 A 7.088 7.088 0 0 0 487.226 81.839 A 9.727 9.727 0 0 0 487.75 81.302 A 10.806 10.806 0 0 0 489.536 78.53 Q 490.111 77.273 490.5 75.741 A 22.846 22.846 0 0 0 490.9 73.802 Q 487.8 71.702 486.15 68.302 Q 484.5 64.902 484.5 61.102 Q 484.5 59.502 484.8 57.902 Z M 346.9 71.902 L 346.9 72.102 A 31.232 31.232 0 0 0 350.935 70.87 Q 352.981 70.08 354.604 69.053 A 15.789 15.789 0 0 0 356.2 67.902 A 10.841 10.841 0 0 0 358.136 65.87 A 7.5 7.5 0 0 0 359.6 61.402 A 5.579 5.579 0 0 0 359.453 60.085 A 3.877 3.877 0 0 0 358.55 58.352 A 3.462 3.462 0 0 0 356.452 57.257 A 4.943 4.943 0 0 0 355.7 57.202 A 6.081 6.081 0 0 0 351.524 58.881 Q 350.406 59.889 349.45 61.502 Q 346.9 65.802 346.9 71.902 Z" vector-effect="non-scaling-stroke"/></g></svg>